<?xml version="1.0" encoding="UTF-8"?>
<svg xmlns="http://www.w3.org/2000/svg" xmlns:xlink="http://www.w3.org/1999/xlink" width="375pt" height="374.999991pt" viewBox="0 0 375 374.999991" version="1.2">
<defs>
<clipPath id="clip1">
  <path d="M 75.863281 71.898438 L 225.863281 71.898438 L 225.863281 221.898438 L 75.863281 221.898438 Z M 75.863281 71.898438 "/>
</clipPath>
<clipPath id="clip2">
  <path d="M 201 156 L 296 156 L 296 301 L 201 301 Z M 201 156 "/>
</clipPath>
<clipPath id="clip3">
  <path d="M 201.457031 156.621094 L 298.914062 159.445312 L 294.742188 303.386719 L 197.285156 300.5625 Z M 201.457031 156.621094 "/>
</clipPath>
<clipPath id="clip4">
  <path d="M 201.457031 156.621094 L 298.914062 159.445312 L 294.742188 303.386719 L 197.285156 300.5625 Z M 201.457031 156.621094 "/>
</clipPath>
<clipPath id="clip5">
  <path d="M 204 167 L 205 167 L 205 169 L 204 169 Z M 204 167 "/>
</clipPath>
<clipPath id="clip6">
  <path d="M 201.457031 156.621094 L 298.914062 159.445312 L 294.742188 303.386719 L 197.285156 300.5625 Z M 201.457031 156.621094 "/>
</clipPath>
<clipPath id="clip7">
  <path d="M 201.457031 156.621094 L 298.914062 159.445312 L 294.742188 303.386719 L 197.285156 300.5625 Z M 201.457031 156.621094 "/>
</clipPath>
<clipPath id="clip8">
  <path d="M 288 162 L 290 162 L 290 164 L 288 164 Z M 288 162 "/>
</clipPath>
<clipPath id="clip9">
  <path d="M 201.457031 156.621094 L 298.914062 159.445312 L 294.742188 303.386719 L 197.285156 300.5625 Z M 201.457031 156.621094 "/>
</clipPath>
<clipPath id="clip10">
  <path d="M 201.457031 156.621094 L 298.914062 159.445312 L 294.742188 303.386719 L 197.285156 300.5625 Z M 201.457031 156.621094 "/>
</clipPath>
<clipPath id="clip11">
  <path d="M 257 277 L 259 277 L 259 279 L 257 279 Z M 257 277 "/>
</clipPath>
<clipPath id="clip12">
  <path d="M 201.457031 156.621094 L 298.914062 159.445312 L 294.742188 303.386719 L 197.285156 300.5625 Z M 201.457031 156.621094 "/>
</clipPath>
<clipPath id="clip13">
  <path d="M 201.457031 156.621094 L 298.914062 159.445312 L 294.742188 303.386719 L 197.285156 300.5625 Z M 201.457031 156.621094 "/>
</clipPath>
<clipPath id="clip14">
  <path d="M 209 294 L 210 294 L 210 296 L 209 296 Z M 209 294 "/>
</clipPath>
<clipPath id="clip15">
  <path d="M 201.457031 156.621094 L 298.914062 159.445312 L 294.742188 303.386719 L 197.285156 300.5625 Z M 201.457031 156.621094 "/>
</clipPath>
<clipPath id="clip16">
  <path d="M 201.457031 156.621094 L 298.914062 159.445312 L 294.742188 303.386719 L 197.285156 300.5625 Z M 201.457031 156.621094 "/>
</clipPath>
</defs>
<g id="surface1">
<g clip-path="url(#clip1)" clip-rule="nonzero">
<path style=" stroke:none;fill-rule:nonzero;fill:rgb(0%,0%,0%);fill-opacity:1;" d="M 216.664062 81.285156 C 211.5 81.285156 207.277344 85.507812 207.277344 90.671875 L 207.277344 97.242188 C 193.429688 81.753906 173.484375 71.898438 150.957031 71.898438 C 109.417969 71.898438 75.863281 105.453125 75.863281 146.992188 C 75.863281 188.527344 109.417969 222.085938 150.957031 222.085938 C 173.484375 222.085938 193.429688 212.230469 207.277344 196.742188 L 207.277344 212.699219 C 207.277344 217.859375 211.5 222.085938 216.664062 222.085938 C 221.824219 222.085938 226.050781 217.859375 226.050781 212.699219 L 226.050781 90.671875 C 226.050781 85.507812 221.824219 81.285156 216.664062 81.285156 Z M 150.957031 203.3125 C 119.746094 203.3125 94.636719 178.203125 94.636719 146.992188 C 94.636719 115.78125 119.746094 90.671875 150.957031 90.671875 C 182.167969 90.671875 207.277344 115.78125 207.277344 146.992188 C 207.277344 178.203125 182.167969 203.3125 150.957031 203.3125 Z M 150.957031 203.3125 "/>
</g>
<g clip-path="url(#clip2)" clip-rule="nonzero">
<g clip-path="url(#clip3)" clip-rule="nonzero">
<g clip-path="url(#clip4)" clip-rule="nonzero">
<path style=" stroke:none;fill-rule:nonzero;fill:rgb(0%,0%,0%);fill-opacity:1;" d="M 214.269531 242.617188 C 214.316406 242.566406 214.355469 242.519531 214.398438 242.460938 C 214.269531 242.300781 214.226562 242.015625 213.734375 242.179688 C 213.964844 242.367188 214.117188 242.488281 214.269531 242.617188 Z M 215.90625 244.597656 C 215.921875 244.648438 215.9375 244.691406 215.953125 244.746094 C 216.289062 244.625 216.617188 244.503906 216.949219 244.386719 C 216.523438 244.210938 216.222656 244.425781 215.90625 244.597656 Z M 219.492188 224.617188 C 219.773438 224.777344 220.027344 224.722656 220.125 224.230469 C 219.75 224.199219 219.90625 224.066406 219.492188 224.617188 Z M 260.847656 165.242188 C 260.394531 165.265625 260.136719 165.46875 259.949219 165.917969 C 260.269531 165.855469 260.511719 165.804688 260.777344 165.75 C 260.796875 165.578125 260.820312 165.421875 260.847656 165.242188 Z M 211.234375 233.835938 C 210.164062 234.53125 210.496094 235.023438 211.324219 234.808594 C 211.296875 234.535156 211.273438 234.253906 211.234375 233.835938 Z M 234.132812 230.261719 C 233.011719 229.539062 232.722656 229.660156 232.203125 230.773438 C 232.515625 230.996094 232.835938 231.226562 233.183594 231.472656 C 233.523438 231.035156 233.8125 230.667969 234.132812 230.261719 Z M 281.175781 166.601562 C 281.191406 166.734375 281.207031 166.875 281.226562 167.050781 C 281.183594 167.066406 281.007812 167.0625 280.957031 167.140625 C 279.96875 168.605469 278.675781 168.808594 278.511719 169.894531 C 278.847656 169.882812 278.847656 169.882812 279.203125 169.5 C 279.285156 169.652344 279.351562 169.800781 279.449219 169.996094 C 284.480469 166.230469 288.128906 163.175781 288.132812 163.175781 L 288.117188 163.160156 C 287.90625 163.59375 272.175781 179.515625 272.691406 181.132812 C 273.773438 180.96875 275.222656 178.492188 276.164062 178.226562 C 275.828125 179.027344 249.828125 210.5625 249.769531 210.570312 C 248.875 212.113281 249.183594 211.6875 246.171875 215.230469 C 246.035156 215.09375 245.949219 215 245.828125 214.878906 C 245.828125 214.878906 241.40625 220.746094 236.484375 225.898438 C 236.894531 226.28125 237.265625 226.621094 237.640625 226.96875 C 238.21875 226.492188 238.507812 225.785156 239.195312 225.464844 C 238.789062 225.96875 238.386719 226.46875 237.953125 227.011719 C 238.597656 227.773438 239.597656 228.039062 240.230469 228.792969 C 235.980469 226.777344 238.191406 227.878906 236.886719 228.03125 C 237.011719 227.804688 237.128906 227.578125 237.285156 227.296875 C 236.871094 227.054688 236.492188 226.824219 236.085938 226.578125 C 235.539062 226.882812 235.949219 226.683594 235.316406 228.042969 C 235.441406 228.316406 237.789062 230.121094 237.949219 230.253906 C 237.917969 230.277344 237.84375 230.332031 237.730469 230.429688 C 238.628906 231.144531 239.488281 231.894531 240.449219 232.542969 C 237.441406 231.59375 234.851562 228.199219 233.855469 229.738281 C 234.21875 230.027344 234.0625 229.910156 234.4375 230.179688 C 233.765625 231.132812 234.050781 230.761719 233.367188 231.570312 C 233.367188 231.570312 249.859375 243.023438 249.859375 243.023438 C 249.835938 243.117188 264.445312 257.355469 264.515625 257.417969 C 264.515625 257.453125 264.507812 257.609375 264.507812 257.714844 C 266.234375 259.300781 264.867188 257.445312 268.976562 261.402344 C 268.921875 261.542969 268.875 261.652344 268.832031 261.761719 C 268.910156 261.921875 274.003906 266.347656 274.0625 266.375 C 274.382812 266.925781 274.933594 267.609375 275.445312 267.691406 C 275.445312 267.691406 283.796875 275.535156 283.828125 275.566406 C 283.773438 275.582031 283.664062 275.613281 283.53125 275.648438 C 283.625 275.8125 290.542969 281.890625 290.5625 282.644531 C 289.277344 281.726562 288.273438 280.488281 287.007812 279.5625 C 286.96875 279.601562 286.921875 279.640625 286.882812 279.679688 C 288.144531 281.421875 293.445312 286.222656 294.0625 287.167969 C 293.453125 286.921875 293.636719 286.9375 293.367188 287.238281 C 290.050781 284.394531 290.277344 284.480469 290.046875 284.730469 C 290.042969 284.742188 289.789062 284.582031 289.796875 284.542969 C 289.917969 284.066406 289.476562 284 289.289062 283.71875 C 289.164062 283.828125 289.074219 283.90625 288.972656 283.992188 C 288.375 283.390625 285.597656 281.691406 285.371094 281.601562 C 292.433594 289.308594 291.4375 287.304688 294.328125 290.761719 C 292.199219 290.289062 291.816406 288.328125 291.347656 289.550781 C 290.796875 289.179688 290.429688 288.417969 289.539062 288.425781 C 289.640625 288.929688 291.628906 290.453125 292.433594 291.09375 C 292.269531 291.144531 292.175781 291.171875 292.042969 291.210938 C 292.703125 291.921875 293.527344 292.441406 294.117188 293.355469 C 293.257812 292.917969 292.523438 292.539062 291.785156 292.164062 C 291.75 292.191406 291.722656 292.21875 291.6875 292.246094 C 292.105469 293.113281 294.308594 294.476562 295.011719 296.046875 C 294.652344 295.929688 294.449219 295.855469 294.242188 295.789062 C 294.21875 295.816406 294.191406 295.84375 294.167969 295.871094 C 294.429688 296.113281 294.695312 296.359375 294.957031 296.601562 C 294.933594 296.632812 294.910156 296.671875 294.886719 296.710938 C 292.761719 296.117188 289.191406 291.933594 288.402344 292.695312 C 289.585938 293.972656 291.957031 294.472656 292.285156 296.097656 C 290.886719 294.925781 290.757812 294.660156 290.121094 294.734375 C 289.46875 294.816406 289.546875 294.320312 287.609375 293.34375 C 288.039062 296.089844 289.210938 294.882812 290.480469 297.59375 C 289.042969 297.363281 287.058594 294.398438 284.46875 294.261719 C 285.035156 295.15625 285.988281 295.644531 286.722656 296.429688 C 286.113281 296.703125 275.996094 288.667969 275.230469 289.214844 C 273.761719 290.25 247.054688 267.070312 246.890625 267.027344 C 247.382812 267.90625 256.585938 276.546875 256.820312 276.761719 C 256.691406 276.921875 256.617188 277.007812 256.535156 277.101562 C 256.328125 276.976562 245.730469 267.179688 245.496094 267.15625 C 245.496094 267.148438 239.953125 262.820312 238.796875 261.5625 C 238.035156 261.113281 222.726562 249.441406 222.710938 249.433594 C 222.445312 250.292969 222.828125 252.730469 223.019531 253.636719 C 223.109375 254.070312 222.542969 257.511719 222.867188 257.824219 C 223.066406 258.019531 223.296875 258.195312 223.46875 258.464844 C 223.269531 258.371094 223.074219 258.273438 222.777344 258.128906 C 222.738281 258.546875 222.699219 258.902344 222.660156 259.277344 C 222.511719 259.257812 222.371094 259.238281 222.125 259.207031 C 222.695312 260.800781 222.613281 264.15625 221.492188 266.023438 C 222.1875 267.273438 220.859375 267.234375 221.394531 268.429688 C 221.527344 268.320312 221.628906 268.226562 221.753906 268.121094 C 221.949219 269.023438 221.949219 269.023438 221.589844 269.234375 C 222.160156 270.902344 220.210938 271.183594 221.269531 272.386719 C 221.539062 272.699219 221.253906 275.140625 221.011719 275.285156 C 221.027344 274.785156 221.039062 274.324219 221.054688 273.804688 C 219.921875 274.226562 219.792969 287.734375 217.90625 288.210938 C 218.8125 289.179688 218.601562 288.375 218.675781 289.289062 C 218.324219 288.882812 218.539062 288.941406 217.90625 288.949219 C 218.050781 289.605469 217.230469 293.152344 216.84375 293.773438 C 216.84375 293.773438 217.03125 283.902344 217.03125 283.902344 C 216.625 284.503906 216.808594 283.734375 215.480469 294.355469 C 214.605469 296.058594 215.136719 298.453125 214.660156 299.464844 C 214.441406 298.910156 214.570312 298.46875 214.414062 297.445312 C 214.078125 295.183594 213.824219 296.476562 214.070312 294.53125 C 212.972656 294.355469 213.707031 297.9375 212.703125 299.453125 C 212.484375 297.21875 212.59375 295.011719 211.933594 292.867188 C 211.464844 293.101562 211.761719 295.429688 211.46875 297.222656 C 211.296875 298.261719 211.441406 299.355469 210.9375 300.425781 C 210.929688 298.738281 210.9375 297.121094 210.59375 295.527344 C 210.449219 296.832031 210.628906 298.164062 210.25 299.4375 C 210.207031 299.4375 210.160156 299.429688 210.117188 299.429688 C 209.984375 297.789062 209.847656 296.144531 209.710938 294.460938 C 209.527344 294.46875 209.394531 294.46875 209.230469 294.476562 C 209.15625 294.222656 209.074219 293.960938 208.980469 293.664062 C 208.261719 293.886719 208.480469 293.792969 208.277344 300.777344 C 207.347656 299.667969 207.730469 291.296875 207.476562 286.699219 C 206.878906 287.042969 206.914062 287.609375 206.78125 288.113281 C 206.367188 286.667969 206.960938 281.929688 206.355469 279.378906 C 206.152344 279.332031 205.957031 279.289062 205.777344 279.242188 C 205.886719 278.8125 205.988281 278.402344 206.101562 277.949219 C 205.929688 277.921875 205.8125 277.902344 205.671875 277.875 C 206.480469 273.339844 200.992188 173.351562 201.738281 171.121094 C 202.132812 169.949219 202.449219 173.074219 202.46875 173.894531 C 202.636719 173.984375 202.871094 174.109375 203.121094 174.238281 C 203.46875 173.742188 203.011719 169.929688 203.164062 168.285156 C 203.367188 168.199219 203.554688 168.117188 203.769531 168.027344 C 203.886719 168.625 205.425781 168.597656 205.640625 168.613281 C 205.699219 168.515625 205.792969 168.359375 205.886719 168.207031 C 205.777344 168.101562 205.691406 168.019531 205.542969 167.882812 C 205.675781 167.800781 205.777344 167.734375 205.875 167.671875 C 205.808594 167.417969 205.742188 167.171875 205.675781 166.929688 C 205.722656 166.914062 205.761719 166.898438 205.808594 166.878906 C 205.957031 167.128906 206.101562 167.375 206.277344 167.671875 C 206.699219 167.183594 206.25 157.027344 206.269531 156.867188 C 206.5 157.214844 206.472656 157.007812 207.277344 159.136719 C 208.21875 161.625 208.113281 162.832031 208.660156 163 C 208.734375 162.644531 208.722656 162.796875 208.695312 162.441406 C 209.226562 162.398438 208.921875 163.007812 209.335938 163.085938 C 209.46875 162.171875 209.332031 161.285156 209.078125 160.359375 C 210.707031 160.921875 209.617188 162.367188 211.015625 164.402344 C 211.828125 163.039062 210.683594 163.039062 211.34375 159.460938 C 213.675781 167.324219 213.597656 172.183594 214.523438 172.492188 C 214.703125 171.445312 213.703125 168.425781 214.070312 167.722656 C 214.84375 166.230469 213.363281 164.113281 213.261719 160.089844 C 213.851562 159.601562 213.144531 159.066406 213.34375 158.597656 C 213.820312 159.726562 213.867188 161.007812 214.625 162.03125 C 214.578125 160.757812 214.09375 159.570312 213.882812 158.332031 C 213.933594 158.3125 213.984375 158.296875 214.035156 158.277344 C 216.683594 162.640625 221.320312 190.335938 221.492188 198.128906 C 221.722656 198.003906 221.855469 197.933594 221.996094 197.851562 C 221.964844 200.5 221.144531 197.671875 221.730469 204.144531 C 221.925781 204.089844 222.128906 204.027344 222.25 203.992188 C 223.144531 202.460938 231.921875 190.5 233.023438 190.210938 C 232.476562 188.234375 256.972656 165.863281 261.675781 164.457031 C 261.828125 164.078125 261.828125 164.078125 263.046875 163.316406 C 262.828125 163.921875 262.039062 163.960938 261.78125 164.515625 C 261.8125 164.566406 261.84375 164.613281 261.871094 164.660156 C 262.285156 164.445312 262.695312 164.226562 263.230469 163.949219 C 263.050781 164.171875 262.957031 164.289062 262.839844 164.4375 C 263.332031 164.648438 266.039062 162.363281 268.277344 161.238281 C 267.988281 161.671875 267.785156 161.988281 267.542969 162.355469 C 268.085938 162.265625 268.347656 161.683594 269.015625 161.796875 C 263.964844 167.292969 273.042969 159.632812 274.183594 159.378906 C 273.976562 160.3125 271.710938 160.902344 271.984375 162.0625 C 272.183594 162.910156 274.140625 161.160156 277.429688 159.136719 C 276.976562 160.804688 277.40625 159.949219 274.753906 162.246094 C 274.140625 162.777344 274.742188 163.164062 273.761719 163.6875 C 273.160156 164.007812 272.855469 164.5625 272.59375 165.1875 C 272.78125 165.3125 272.945312 165.421875 273.121094 165.535156 C 273.023438 165.910156 272.8125 166.140625 272.503906 166.355469 C 270.621094 167.652344 271.121094 168.242188 272.226562 167.578125 C 274.355469 166.3125 273.5625 167.21875 274.945312 166.621094 C 274.949219 166.667969 274.960938 166.707031 274.964844 166.75 C 273.089844 168.304688 273.097656 168.226562 272.9375 168.53125 C 272.675781 169.035156 271.394531 168.933594 271.425781 170.179688 C 271.644531 169.964844 271.78125 169.835938 271.929688 169.679688 C 272.894531 170.074219 272.921875 169.273438 274.171875 168.566406 C 274.316406 168.492188 274.339844 168.210938 274.40625 168.066406 C 274.726562 167.976562 275.011719 167.886719 275.316406 167.800781 C 276.363281 168.667969 277.808594 166.175781 280.164062 164.96875 C 280.082031 165.113281 279.992188 165.25 279.828125 165.527344 C 280.613281 165.34375 281.058594 164.855469 281.609375 164.535156 C 281.410156 164.984375 279.09375 167.179688 278.929688 167.339844 C 278.957031 167.378906 278.980469 167.417969 279.007812 167.457031 C 280.386719 167.179688 281.132812 166.628906 281.191406 166.617188 L 281.175781 166.601562 "/>
</g>
</g>
</g>
<g clip-path="url(#clip5)" clip-rule="nonzero">
<g clip-path="url(#clip6)" clip-rule="nonzero">
<g clip-path="url(#clip7)" clip-rule="nonzero">
<path style=" stroke:none;fill-rule:nonzero;fill:rgb(0%,0%,0%);fill-opacity:1;" d="M 204.875 167.175781 C 204.820312 167.488281 204.773438 167.792969 204.71875 168.097656 C 204.289062 168.023438 204.289062 167.726562 204.320312 167.40625 C 204.496094 167.332031 204.671875 167.261719 204.875 167.175781 "/>
</g>
</g>
</g>
<g clip-path="url(#clip8)" clip-rule="nonzero">
<g clip-path="url(#clip9)" clip-rule="nonzero">
<g clip-path="url(#clip10)" clip-rule="nonzero">
<path style=" stroke:none;fill-rule:nonzero;fill:rgb(0%,0%,0%);fill-opacity:1;" d="M 288.132812 163.175781 C 288.574219 162.65625 288.777344 162.335938 289.25 162.136719 C 288.183594 163.335938 288.464844 163.070312 288.117188 163.160156 C 288.117188 163.160156 288.132812 163.175781 288.132812 163.175781 "/>
</g>
</g>
</g>
<g clip-path="url(#clip11)" clip-rule="nonzero">
<g clip-path="url(#clip12)" clip-rule="nonzero">
<g clip-path="url(#clip13)" clip-rule="nonzero">
<path style=" stroke:none;fill-rule:nonzero;fill:rgb(0%,0%,0%);fill-opacity:1;" d="M 257.585938 277.835938 C 258.160156 278.019531 258.167969 278.023438 258.296875 278.472656 C 258.058594 278.265625 257.824219 278.050781 257.585938 277.835938 "/>
</g>
</g>
</g>
<g clip-path="url(#clip14)" clip-rule="nonzero">
<g clip-path="url(#clip15)" clip-rule="nonzero">
<g clip-path="url(#clip16)" clip-rule="nonzero">
<path style=" stroke:none;fill-rule:nonzero;fill:rgb(0%,0%,0%);fill-opacity:1;" d="M 209.464844 294.886719 C 209.484375 295.242188 209.5 295.597656 209.523438 296 C 209.308594 295.652344 209.308594 295.652344 209.335938 294.910156 C 209.382812 294.902344 209.421875 294.890625 209.464844 294.886719 "/>
</g>
</g>
</g>
</g>
</svg>
